<svg width="75" height="75" viewBox="0 0 75 75" fill="none" xmlns="http://www.w3.org/2000/svg">
<path fill-rule="evenodd" clip-rule="evenodd" d="M38.3899 60.4548C51.4469 60.4548 62.0317 49.87 62.0317 36.813C62.0317 23.7559 51.4469 13.1711 38.3899 13.1711C25.3328 13.1711 14.748 23.7559 14.748 36.813C14.748 49.87 25.3328 60.4548 38.3899 60.4548ZM30.8119 26.2986C29.832 27.7718 29.311 29.5024 29.3147 31.2717L34.0492 31.2617C34.0474 30.4289 34.2927 29.6142 34.7539 28.9207C35.2152 28.2272 35.8718 27.6861 36.6406 27.3658C37.4094 27.0454 38.2559 26.9602 39.0731 27.121C39.8903 27.2818 40.6415 27.6813 41.2317 28.269C41.8219 28.8567 42.2245 29.6062 42.3887 30.4227C42.5529 31.2392 42.4713 32.0861 42.1542 32.8563C41.837 33.6264 41.2987 34.2852 40.6071 34.7494C39.9156 35.2136 39.1019 35.4623 38.2691 35.464L38.2692 35.5343H36.4727V44.1603H41.2649L41.1527 39.7179C41.8888 39.4664 42.5929 39.1186 43.2457 38.6804C44.7147 37.6944 45.8584 36.2949 46.532 34.6589C47.2057 33.0229 47.379 31.2239 47.0302 29.4893C46.6814 27.7548 45.8261 26.1626 44.5724 24.9142C43.3188 23.6658 41.723 22.8171 39.987 22.4756C38.2511 22.1341 36.4528 22.315 34.8196 22.9955C33.1865 23.676 31.7918 24.8255 30.8119 26.2986ZM39.0285 51.8285C40.4401 51.8285 41.5844 50.6842 41.5844 49.2726C41.5844 47.861 40.4401 46.7167 39.0285 46.7167C37.617 46.7167 36.4727 47.861 36.4727 49.2726C36.4727 50.6842 37.617 51.8285 39.0285 51.8285Z" fill="#FFBB55"/>
<path d="M27.5106 25.5021C22.5673 23.8566 8.7894 20.0454 6.71794 22.4901C4.12862 25.546 14.4859 35.4189 33.5527 45.0567C52.6196 54.6945 65.3308 56.8102 69.3325 54.4595C72.5338 52.5789 64.1538 45.6836 60.1521 42.9411" stroke="url(#paint0_linear_475_20)" stroke-width="1.92927" stroke-linecap="round"/>
<path d="M24.055 28.1697C18.8815 27.6061 4.99251 26.9936 3.48792 29.821C1.60718 33.3553 13.8067 40.8168 34.4581 46.2077C55.1094 51.5985 67.9649 50.98 71.3735 47.8365C74.1004 45.3217 64.4612 40.3528 59.9746 38.5179" stroke="url(#paint1_linear_475_20)" stroke-width="1.92927" stroke-linecap="round"/>
<path fill-rule="evenodd" clip-rule="evenodd" d="M15.9241 29.4279C19.0257 19.9877 27.9116 13.1714 38.3895 13.1714C51.4466 13.1714 62.0314 23.7562 62.0314 36.8132C62.0314 41.3771 60.7381 45.639 58.4981 49.2524L41.1897 41.1928L41.1524 39.7181C41.8885 39.4666 42.5926 39.1188 43.2454 38.6806C44.7144 37.6946 45.8581 36.2951 46.5317 34.6591C47.2053 33.0231 47.3787 31.2241 47.0299 29.4895C46.6811 27.755 45.8258 26.1628 44.5721 24.9144C43.3185 23.666 41.7227 22.8173 39.9867 22.4758C38.2508 22.1343 36.4525 22.3152 34.8193 22.9957C33.1862 23.6762 31.7915 24.8257 30.8116 26.2988C29.8317 27.772 29.3107 29.5026 29.3144 31.2719L34.0489 31.2619C34.0471 30.4291 34.2924 29.6144 34.7536 28.9209C35.2149 28.2274 35.8715 27.6863 36.6403 27.366C37.4091 27.0456 38.2556 26.9604 39.0728 27.1212C39.89 27.282 40.6412 27.6815 41.2314 28.2692C41.8216 28.8569 42.2242 29.6064 42.3884 30.4229C42.5526 31.2394 42.471 32.0863 42.1539 32.8565C41.8367 33.6266 41.2984 34.2854 40.6068 34.7496C39.9153 35.2138 39.1016 35.4625 38.2688 35.4642L38.2689 35.5345H36.4724V38.9962L15.9241 29.4279Z" fill="#FFBB55"/>
<defs>
<linearGradient id="paint0_linear_475_20" x1="38.1855" y1="21.6936" x2="38.1855" y2="55.3381" gradientUnits="userSpaceOnUse">
<stop stop-color="#FFBB55"/>
<stop offset="1" stop-color="#EF6703"/>
</linearGradient>
<linearGradient id="paint1_linear_475_20" x1="34.0273" y1="22.3537" x2="41.1562" y2="55.2782" gradientUnits="userSpaceOnUse">
<stop stop-color="#FFBB55"/>
<stop offset="1" stop-color="#EE6400"/>
</linearGradient>
</defs>
</svg>
